<svg width="20" height="20" viewBox="0 0 20 20" fill="none" xmlns="http://www.w3.org/2000/svg">
<path id="closeIcon" d="M19.5821 0.436126C19.3144 0.16831 18.9514 0.0178597 18.573 0.0178597C18.1945 0.0178597 17.8315 0.16831 17.5638 0.436126L10.0089 7.99755L2.45401 0.436126C2.32234 0.299683 2.16484 0.190851 1.9907 0.115981C1.81656 0.0411112 1.62926 0.00170225 1.43974 5.39386e-05C1.25022 -0.00159437 1.06227 0.0345506 0.886858 0.10638C0.711443 0.17821 0.552076 0.284286 0.41806 0.418419C0.284044 0.552551 0.178059 0.712054 0.106289 0.88762C0.0345211 1.06319 -0.00159264 1.2513 5.53131e-05 1.44098C0.00170135 1.63067 0.0410786 1.81813 0.115883 1.99242C0.190689 2.16671 0.299425 2.32434 0.435751 2.45613L7.99066 10.0176L0.435751 17.579C0.175749 17.8484 0.0318813 18.2093 0.0351334 18.5838C0.0383854 18.9584 0.188499 19.3167 0.453138 19.5816C0.717779 19.8464 1.07578 19.9967 1.45002 19.9999C1.82426 20.0032 2.18481 19.8592 2.45401 19.599L10.0089 12.0376L17.5638 19.599C17.833 19.8592 18.1936 20.0032 18.5678 19.9999C18.9421 19.9967 19.3001 19.8464 19.5647 19.5816C19.8293 19.3167 19.9795 18.9584 19.9827 18.5838C19.986 18.2093 19.8421 17.8484 19.5821 17.579L12.0272 10.0176L19.5821 2.45613C19.8497 2.18823 20 1.82493 20 1.44613C20 1.06732 19.8497 0.704023 19.5821 0.436126Z" fill="white"/>
</svg>
